<svg xmlns="http://www.w3.org/2000/svg" viewBox="0 0 638 360" font-family="Arial, 'Helvetica Neue', sans-serif" role="img" aria-label="A chaotic weekly kayak sign-up spreadsheet with overwritten names, highlighted cells, a missing entry, a duplicate row, and duplicated sheet tabs.">
<rect x="0" y="0" width="638" height="360" fill="#ffffff"/>
<rect x="0" y="0" width="638" height="26" fill="#ffffff"/>
<text x="10" y="17" font-size="12" fill="#188038" text-anchor="start" font-weight="bold" >Weekly Paddling Spreadsheet — 2026</text>
<text x="628" y="17" font-size="10" fill="#5f6368" text-anchor="end" font-weight="normal" >Shared · 6 editors</text>
<rect x="0" y="26" width="638" height="20" fill="#f8f9fa" stroke="#dadce0" stroke-width="1"/>
<rect x="0" y="26" width="26" height="20" fill="#f8f9fa" stroke="#dadce0" stroke-width="1"/>
<text x="59.0" y="40" font-size="10" fill="#5f6368" text-anchor="middle" font-weight="normal" >A</text>
<text x="151.0" y="40" font-size="10" fill="#5f6368" text-anchor="middle" font-weight="normal" >B</text>
<text x="242.0" y="40" font-size="10" fill="#5f6368" text-anchor="middle" font-weight="normal" >C</text>
<text x="333.0" y="40" font-size="10" fill="#5f6368" text-anchor="middle" font-weight="normal" >D</text>
<text x="424.0" y="40" font-size="10" fill="#5f6368" text-anchor="middle" font-weight="normal" >E</text>
<text x="515.0" y="40" font-size="10" fill="#5f6368" text-anchor="middle" font-weight="normal" >F</text>
<text x="606.0" y="40" font-size="10" fill="#5f6368" text-anchor="middle" font-weight="normal" >G</text>
<rect x="0" y="46" width="26" height="22" fill="#f8f9fa" stroke="#dadce0" stroke-width="1"/>
<text x="13.0" y="61" font-size="10" fill="#5f6368" text-anchor="middle" font-weight="normal" >1</text>
<rect x="26" y="46" width="66" height="22" fill="#ffffff" stroke="#dadce0" stroke-width="1"/>
<rect x="0" y="68" width="26" height="22" fill="#f8f9fa" stroke="#dadce0" stroke-width="1"/>
<text x="13.0" y="83" font-size="10" fill="#5f6368" text-anchor="middle" font-weight="normal" >2</text>
<rect x="26" y="68" width="66" height="22" fill="#e8f0fe" stroke="#dadce0" stroke-width="1"/>
<text x="32" y="83" font-size="10" fill="#202124" text-anchor="start" font-weight="bold" >Week 20</text>
<rect x="0" y="90" width="26" height="22" fill="#f8f9fa" stroke="#dadce0" stroke-width="1"/>
<text x="13.0" y="105" font-size="10" fill="#5f6368" text-anchor="middle" font-weight="normal" >3</text>
<rect x="26" y="90" width="66" height="22" fill="#ffffff" stroke="#dadce0" stroke-width="1"/>
<text x="32" y="105" font-size="10" fill="#202124" text-anchor="start" font-weight="bold" >Discipline</text>
<rect x="0" y="112" width="26" height="22" fill="#f8f9fa" stroke="#dadce0" stroke-width="1"/>
<text x="13.0" y="127" font-size="10" fill="#5f6368" text-anchor="middle" font-weight="normal" >4</text>
<rect x="26" y="112" width="66" height="22" fill="#ffffff" stroke="#dadce0" stroke-width="1"/>
<text x="32" y="127" font-size="10" fill="#202124" text-anchor="start" font-weight="bold" >Time</text>
<rect x="0" y="134" width="26" height="22" fill="#f8f9fa" stroke="#dadce0" stroke-width="1"/>
<text x="13.0" y="149" font-size="10" fill="#5f6368" text-anchor="middle" font-weight="normal" >5</text>
<rect x="26" y="134" width="66" height="22" fill="#ffffff" stroke="#dadce0" stroke-width="1"/>
<text x="32" y="149" font-size="10" fill="#202124" text-anchor="start" font-weight="normal" >1</text>
<rect x="0" y="156" width="26" height="22" fill="#f8f9fa" stroke="#dadce0" stroke-width="1"/>
<text x="13.0" y="171" font-size="10" fill="#5f6368" text-anchor="middle" font-weight="normal" >6</text>
<rect x="26" y="156" width="66" height="22" fill="#ffffff" stroke="#dadce0" stroke-width="1"/>
<text x="32" y="171" font-size="10" fill="#202124" text-anchor="start" font-weight="normal" >2</text>
<rect x="0" y="178" width="26" height="22" fill="#f8f9fa" stroke="#dadce0" stroke-width="1"/>
<text x="13.0" y="193" font-size="10" fill="#5f6368" text-anchor="middle" font-weight="normal" >7</text>
<rect x="26" y="178" width="66" height="22" fill="#ffffff" stroke="#dadce0" stroke-width="1"/>
<text x="32" y="193" font-size="10" fill="#202124" text-anchor="start" font-weight="normal" >3</text>
<rect x="0" y="200" width="26" height="22" fill="#f8f9fa" stroke="#dadce0" stroke-width="1"/>
<text x="13.0" y="215" font-size="10" fill="#5f6368" text-anchor="middle" font-weight="normal" >8</text>
<rect x="26" y="200" width="66" height="22" fill="#ffffff" stroke="#dadce0" stroke-width="1"/>
<text x="32" y="215" font-size="10" fill="#202124" text-anchor="start" font-weight="normal" >4</text>
<rect x="0" y="222" width="26" height="22" fill="#f8f9fa" stroke="#dadce0" stroke-width="1"/>
<text x="13.0" y="237" font-size="10" fill="#5f6368" text-anchor="middle" font-weight="normal" >9</text>
<rect x="26" y="222" width="66" height="22" fill="#ffffff" stroke="#dadce0" stroke-width="1"/>
<text x="32" y="237" font-size="10" fill="#202124" text-anchor="start" font-weight="normal" >5</text>
<rect x="0" y="244" width="26" height="22" fill="#f8f9fa" stroke="#dadce0" stroke-width="1"/>
<text x="13.0" y="259" font-size="10" fill="#5f6368" text-anchor="middle" font-weight="normal" >10</text>
<rect x="26" y="244" width="66" height="22" fill="#ffffff" stroke="#dadce0" stroke-width="1"/>
<text x="32" y="259" font-size="10" fill="#202124" text-anchor="start" font-weight="normal" >6</text>
<rect x="0" y="266" width="26" height="22" fill="#f8f9fa" stroke="#dadce0" stroke-width="1"/>
<text x="13.0" y="281" font-size="10" fill="#5f6368" text-anchor="middle" font-weight="normal" >11</text>
<rect x="26" y="266" width="66" height="22" fill="#ffffff" stroke="#dadce0" stroke-width="1"/>
<text x="32" y="281" font-size="10" fill="#202124" text-anchor="start" font-weight="normal" >7</text>
<rect x="0" y="288" width="26" height="22" fill="#f8f9fa" stroke="#dadce0" stroke-width="1"/>
<text x="13.0" y="303" font-size="10" fill="#5f6368" text-anchor="middle" font-weight="normal" >12</text>
<rect x="26" y="288" width="66" height="22" fill="#ffffff" stroke="#dadce0" stroke-width="1"/>
<text x="32" y="303" font-size="10" fill="#202124" text-anchor="start" font-weight="normal" >8</text>
<rect x="0" y="310" width="26" height="22" fill="#f8f9fa" stroke="#dadce0" stroke-width="1"/>
<text x="13.0" y="325" font-size="10" fill="#5f6368" text-anchor="middle" font-weight="normal" >13</text>
<rect x="26" y="310" width="66" height="22" fill="#ffffff" stroke="#dadce0" stroke-width="1"/>
<text x="32" y="325" font-size="10" fill="#202124" text-anchor="start" font-weight="bold" >sum</text>
<rect x="92" y="46" width="118" height="22" fill="#f8f9fa" stroke="#dadce0" stroke-width="1"/>
<rect x="210" y="46" width="64" height="22" fill="#f8f9fa" stroke="#dadce0" stroke-width="1"/>
<text x="98" y="61" font-size="10" fill="#5f6368" text-anchor="start" font-weight="normal" >Member sign-up</text>
<text x="216" y="61" font-size="10" fill="#5f6368" text-anchor="start" font-weight="normal" >Boat</text>
<rect x="274" y="46" width="118" height="22" fill="#f8f9fa" stroke="#dadce0" stroke-width="1"/>
<rect x="392" y="46" width="64" height="22" fill="#f8f9fa" stroke="#dadce0" stroke-width="1"/>
<text x="280" y="61" font-size="10" fill="#5f6368" text-anchor="start" font-weight="normal" >Member sign-up</text>
<text x="398" y="61" font-size="10" fill="#5f6368" text-anchor="start" font-weight="normal" >Boat</text>
<rect x="456" y="46" width="118" height="22" fill="#f8f9fa" stroke="#dadce0" stroke-width="1"/>
<rect x="574" y="46" width="64" height="22" fill="#f8f9fa" stroke="#dadce0" stroke-width="1"/>
<text x="462" y="61" font-size="10" fill="#5f6368" text-anchor="start" font-weight="normal" >Member sign-up</text>
<text x="580" y="61" font-size="10" fill="#5f6368" text-anchor="start" font-weight="normal" >Boat</text>
<rect x="92" y="68" width="182" height="22" fill="#e8f0fe" stroke="#dadce0" stroke-width="1"/>
<text x="98" y="83" font-size="10" fill="#174ea6" text-anchor="start" font-weight="bold" >Monday 18 May</text>
<rect x="274" y="68" width="182" height="22" fill="#e8f0fe" stroke="#dadce0" stroke-width="1"/>
<text x="280" y="83" font-size="10" fill="#174ea6" text-anchor="start" font-weight="bold" >Tuesday 19 May</text>
<rect x="456" y="68" width="182" height="22" fill="#e8f0fe" stroke="#dadce0" stroke-width="1"/>
<text x="462" y="83" font-size="10" fill="#174ea6" text-anchor="start" font-weight="bold" >Wed 20 May</text>
<rect x="92" y="90" width="118" height="22" fill="#ffffff" stroke="#dadce0" stroke-width="1"/>
<rect x="210" y="90" width="64" height="22" fill="#ffffff" stroke="#dadce0" stroke-width="1"/>
<text x="98" y="105" font-size="10" fill="#202124" text-anchor="start" font-weight="normal" >Social Paddle</text>
<rect x="274" y="90" width="118" height="22" fill="#eef3fb" stroke="#dadce0" stroke-width="1"/>
<rect x="392" y="90" width="64" height="22" fill="#eef3fb" stroke="#dadce0" stroke-width="1"/>
<text x="280" y="105" font-size="10" fill="#202124" text-anchor="start" font-weight="normal" >Polo</text>
<rect x="456" y="90" width="118" height="22" fill="#ffffff" stroke="#dadce0" stroke-width="1"/>
<rect x="574" y="90" width="64" height="22" fill="#ffffff" stroke="#dadce0" stroke-width="1"/>
<text x="462" y="105" font-size="10" fill="#202124" text-anchor="start" font-weight="normal" >Sea Kayaking</text>
<rect x="92" y="112" width="118" height="22" fill="#ffffff" stroke="#dadce0" stroke-width="1"/>
<rect x="210" y="112" width="64" height="22" fill="#ffffff" stroke="#dadce0" stroke-width="1"/>
<text x="98" y="127" font-size="10" fill="#202124" text-anchor="start" font-weight="normal" >18:30</text>
<rect x="274" y="112" width="118" height="22" fill="#eef3fb" stroke="#dadce0" stroke-width="1"/>
<rect x="392" y="112" width="64" height="22" fill="#eef3fb" stroke="#dadce0" stroke-width="1"/>
<text x="280" y="127" font-size="10" fill="#202124" text-anchor="start" font-weight="normal" >18:30</text>
<rect x="456" y="112" width="118" height="22" fill="#ffffff" stroke="#dadce0" stroke-width="1"/>
<rect x="574" y="112" width="64" height="22" fill="#ffffff" stroke="#dadce0" stroke-width="1"/>
<text x="462" y="127" font-size="10" fill="#202124" text-anchor="start" font-weight="normal" >18:30</text>
<rect x="92" y="134" width="118" height="22" fill="#ffffff" stroke="#dadce0" stroke-width="1"/>
<rect x="210" y="134" width="64" height="22" fill="#ffffff" stroke="#dadce0" stroke-width="1"/>
<text x="98" y="149" font-size="10" fill="#202124" text-anchor="start" font-weight="normal" >Aoife M.</text>
<text x="216" y="149" font-size="10" fill="#202124" text-anchor="start" font-weight="normal" >Club</text>
<rect x="274" y="134" width="118" height="22" fill="#d9ead3" stroke="#dadce0" stroke-width="1"/>
<rect x="392" y="134" width="64" height="22" fill="#d9ead3" stroke="#dadce0" stroke-width="1"/>
<text x="280" y="149" font-size="10" fill="#202124" text-anchor="start" font-weight="normal" >Cathal M.</text>
<text x="398" y="149" font-size="10" fill="#202124" text-anchor="start" font-weight="normal" >Club</text>
<rect x="456" y="134" width="118" height="22" fill="#ffffff" stroke="#dadce0" stroke-width="1"/>
<rect x="574" y="134" width="64" height="22" fill="#ffffff" stroke="#dadce0" stroke-width="1"/>
<text x="462" y="149" font-size="10" fill="#202124" text-anchor="start" font-weight="normal" >Fionn C.</text>
<text x="580" y="149" font-size="10" fill="#202124" text-anchor="start" font-weight="normal" >Own</text>
<rect x="92" y="156" width="118" height="22" fill="#ffffff" stroke="#dadce0" stroke-width="1"/>
<rect x="210" y="156" width="64" height="22" fill="#ffffff" stroke="#dadce0" stroke-width="1"/>
<text x="98" y="171" font-size="10" fill="#202124" text-anchor="start" font-weight="normal" >Barry K.</text>
<text x="216" y="171" font-size="10" fill="#202124" text-anchor="start" font-weight="normal" >club</text>
<rect x="274" y="156" width="118" height="22" fill="#eef3fb" stroke="#dadce0" stroke-width="1"/>
<rect x="392" y="156" width="64" height="22" fill="#eef3fb" stroke="#dadce0" stroke-width="1"/>
<text x="280" y="171" font-size="10" fill="#202124" text-anchor="start" font-weight="normal" >Méabh N.</text>
<text x="398" y="171" font-size="10" fill="#202124" text-anchor="start" font-weight="normal" >Club</text>
<rect x="456" y="156" width="118" height="22" fill="#ffffff" stroke="#dadce0" stroke-width="1"/>
<rect x="574" y="156" width="64" height="22" fill="#ffffff" stroke="#dadce0" stroke-width="1"/>
<text x="462" y="171" font-size="10" fill="#202124" text-anchor="start" font-weight="normal" >Saoirse L.</text>
<text x="580" y="171" font-size="10" fill="#202124" text-anchor="start" font-weight="normal" >Club</text>
<rect x="92" y="178" width="118" height="22" fill="#fff2cc" stroke="#dadce0" stroke-width="1"/>
<rect x="210" y="178" width="64" height="22" fill="#ffffff" stroke="#dadce0" stroke-width="1"/>
<text x="98" y="193" font-size="10" fill="#202124"><tspan fill="#9aa0a6" text-decoration="line-through">Tomás</tspan><tspan dx="4" fill="#202124">Órla F.</tspan></text>
<text x="216" y="193" font-size="10" fill="#202124" text-anchor="start" font-weight="normal" >own</text>
<rect x="274" y="178" width="118" height="22" fill="#eef3fb" stroke="#dadce0" stroke-width="1"/>
<rect x="392" y="178" width="64" height="22" fill="#eef3fb" stroke="#dadce0" stroke-width="1"/>
<text x="280" y="193" font-size="10" fill="#202124" text-anchor="start" font-weight="normal" >Niall R.</text>
<text x="398" y="193" font-size="10" fill="#202124" text-anchor="start" font-weight="normal" >club</text>
<rect x="456" y="178" width="118" height="22" fill="#fce8e6" stroke="#dadce0" stroke-width="1"/>
<rect x="574" y="178" width="64" height="22" fill="#fce8e6" stroke="#dadce0" stroke-width="1"/>
<text x="462" y="193" font-size="10" fill="#202124" text-anchor="start" font-weight="normal" >Fionn C.</text>
<text x="580" y="193" font-size="10" fill="#202124" text-anchor="start" font-weight="normal" >Own</text>
<rect x="92" y="200" width="118" height="22" fill="#ffffff" stroke="#dadce0" stroke-width="1"/>
<rect x="210" y="200" width="64" height="22" fill="#ffffff" stroke="#dadce0" stroke-width="1"/>
<text x="98" y="215" font-size="10" fill="#202124" text-anchor="start" font-weight="normal" >Ronan D.</text>
<text x="216" y="215" font-size="10" fill="#202124" text-anchor="start" font-weight="normal" >?</text>
<rect x="274" y="200" width="118" height="22" fill="#eef3fb" stroke="#dadce0" stroke-width="1"/>
<rect x="392" y="200" width="64" height="22" fill="#eef3fb" stroke="#dadce0" stroke-width="1"/>
<text x="280" y="215" font-size="10" fill="#202124" text-anchor="start" font-weight="normal" >Aoibhinn K.</text>
<rect x="456" y="200" width="118" height="22" fill="#ffffff" stroke="#dadce0" stroke-width="1"/>
<rect x="574" y="200" width="64" height="22" fill="#ffffff" stroke="#dadce0" stroke-width="1"/>
<text x="462" y="215" font-size="10" fill="#202124" text-anchor="start" font-weight="normal" >Peadar B.</text>
<rect x="92" y="222" width="118" height="22" fill="#ffffff" stroke="#dadce0" stroke-width="1"/>
<rect x="210" y="222" width="64" height="22" fill="#ffffff" stroke="#dadce0" stroke-width="1"/>
<text x="98" y="237" font-size="10" fill="#202124" text-anchor="start" font-weight="normal" >Gráinne + Seán</text>
<text x="216" y="237" font-size="10" fill="#202124" text-anchor="start" font-weight="normal" >Club</text>
<rect x="274" y="222" width="118" height="22" fill="#eef3fb" stroke="#dadce0" stroke-width="1"/>
<rect x="392" y="222" width="64" height="22" fill="#eef3fb" stroke="#dadce0" stroke-width="1"/>
<rect x="456" y="222" width="118" height="22" fill="#ffffff" stroke="#dadce0" stroke-width="1"/>
<rect x="574" y="222" width="64" height="22" fill="#ffffff" stroke="#dadce0" stroke-width="1"/>
<rect x="92" y="244" width="118" height="22" fill="#ffffff" stroke="#dadce0" stroke-width="1"/>
<rect x="210" y="244" width="64" height="22" fill="#ffffff" stroke="#dadce0" stroke-width="1"/>
<text x="216" y="259" font-size="10" fill="#202124" text-anchor="start" font-weight="normal" >Club</text>
<rect x="274" y="244" width="118" height="22" fill="#eef3fb" stroke="#dadce0" stroke-width="1"/>
<rect x="392" y="244" width="64" height="22" fill="#eef3fb" stroke="#dadce0" stroke-width="1"/>
<rect x="456" y="244" width="118" height="22" fill="#ffffff" stroke="#dadce0" stroke-width="1"/>
<rect x="574" y="244" width="64" height="22" fill="#ffffff" stroke="#dadce0" stroke-width="1"/>
<rect x="92" y="266" width="118" height="22" fill="#ffffff" stroke="#dadce0" stroke-width="1"/>
<rect x="210" y="266" width="64" height="22" fill="#ffffff" stroke="#dadce0" stroke-width="1"/>
<text x="98" y="281" font-size="10" fill="#202124" text-anchor="start" font-weight="normal" >Diarmuid O.</text>
<text x="216" y="281" font-size="10" fill="#202124" text-anchor="start" font-weight="normal" >own boat</text>
<rect x="274" y="266" width="118" height="22" fill="#eef3fb" stroke="#dadce0" stroke-width="1"/>
<rect x="392" y="266" width="64" height="22" fill="#eef3fb" stroke="#dadce0" stroke-width="1"/>
<rect x="456" y="266" width="118" height="22" fill="#ffffff" stroke="#dadce0" stroke-width="1"/>
<rect x="574" y="266" width="64" height="22" fill="#ffffff" stroke="#dadce0" stroke-width="1"/>
<rect x="92" y="288" width="118" height="22" fill="#ffffff" stroke="#dadce0" stroke-width="1"/>
<rect x="210" y="288" width="64" height="22" fill="#ffffff" stroke="#dadce0" stroke-width="1"/>
<rect x="274" y="288" width="118" height="22" fill="#eef3fb" stroke="#dadce0" stroke-width="1"/>
<rect x="392" y="288" width="64" height="22" fill="#eef3fb" stroke="#dadce0" stroke-width="1"/>
<rect x="456" y="288" width="118" height="22" fill="#ffffff" stroke="#dadce0" stroke-width="1"/>
<rect x="574" y="288" width="64" height="22" fill="#ffffff" stroke="#dadce0" stroke-width="1"/>
<rect x="92" y="244" width="118" height="22" fill="none" stroke="#1a73e8" stroke-width="2"/>
<path d="M266,46 L274,46 L274,54 Z" fill="#f9ab00"/>
<rect x="92" y="310" width="118" height="22" fill="#f8f9fa" stroke="#dadce0" stroke-width="1"/>
<rect x="210" y="310" width="64" height="22" fill="#f8f9fa" stroke="#dadce0" stroke-width="1"/>
<text x="98" y="325" font-size="10" fill="#5f6368" text-anchor="start" font-weight="bold" >7</text>
<rect x="274" y="310" width="118" height="22" fill="#f8f9fa" stroke="#dadce0" stroke-width="1"/>
<rect x="392" y="310" width="64" height="22" fill="#f8f9fa" stroke="#dadce0" stroke-width="1"/>
<text x="280" y="325" font-size="10" fill="#5f6368" text-anchor="start" font-weight="bold" >4</text>
<rect x="456" y="310" width="118" height="22" fill="#f8f9fa" stroke="#dadce0" stroke-width="1"/>
<rect x="574" y="310" width="64" height="22" fill="#f8f9fa" stroke="#dadce0" stroke-width="1"/>
<text x="462" y="325" font-size="10" fill="#5f6368" text-anchor="start" font-weight="bold" >4</text>
<line x1="92" y1="26" x2="92" y2="332" stroke="#9aa0a6" stroke-width="1.5"/>
<line x1="274" y1="26" x2="274" y2="332" stroke="#9aa0a6" stroke-width="1.5"/>
<line x1="456" y1="26" x2="456" y2="332" stroke="#9aa0a6" stroke-width="1.5"/>
<line x1="638" y1="26" x2="638" y2="332" stroke="#9aa0a6" stroke-width="1.5"/>
<rect x="0" y="332" width="638" height="28" fill="#f8f9fa"/>
<line x1="0" y1="332" x2="638" y2="332" stroke="#dadce0" stroke-width="1"/>
<text x="35.599999999999994" y="350" font-size="10" fill="#5f6368" text-anchor="middle" font-weight="normal" >Week 18</text>
<text x="94.79999999999998" y="350" font-size="10" fill="#5f6368" text-anchor="middle" font-weight="normal" >Week 19</text>
<rect x="126.39999999999998" y="332" width="55.199999999999996" height="28" fill="#ffffff"/>
<rect x="126.39999999999998" y="332" width="55.199999999999996" height="3" fill="#188038"/>
<text x="153.99999999999997" y="350" font-size="10" fill="#188038" text-anchor="middle" font-weight="bold" >Week 20</text>
<text x="224.39999999999998" y="350" font-size="10" fill="#5f6368" text-anchor="middle" font-weight="normal" >Week 20 (1)</text>
<text x="317.19999999999993" y="350" font-size="10" fill="#5f6368" text-anchor="middle" font-weight="normal" >Copy of Week 20</text>
<text x="401.5999999999999" y="350" font-size="10" fill="#5f6368" text-anchor="middle" font-weight="normal" >Week 21?</text>
</svg>